inDegrees=no
num_controls=7
num_derivatives=13
num_iterations=99
num_multipliers=7
num_parameters=0
num_slacks=7
num_states=26
objective=5.432613
objective_accelerations=0.797694
objective_balance=0.024858
objective_effort=0.246641
objective_height=4.264438
objective_ligament=0.098982
solver_duration=1147.744841
status=Solve_Succeeded
success=true
DataType=double
version=3
OpenSimVersion=4.4-2022-07-23-0e9fedc
endheader
time	/jointset/ground_pelvis/pelvis_tilt/value	/jointset/ground_pelvis/pelvis_tx/value	/jointset/ground_pelvis/pelvis_ty/value	/jointset/hip_l/hip_flexion_l/value	/jointset/hip_l/hip_adduction_l/value	/jointset/hip_l/hip_rotation_l/value	/jointset/back/lumbar_extension/value	/jointset/patellofemoral_l/patellar_flexion_l/value	/jointset/knee_l/knee_flexion_l/value	/jointset/knee_l/knee_adduction_l/value	/jointset/knee_l/knee_rotation_l/value	/jointset/ankle_l/ankle_angle_l/value	/jointset/subtalar_l/subtalar_angle_l/value	/jointset/ground_pelvis/pelvis_tilt/speed	/jointset/ground_pelvis/pelvis_tx/speed	/jointset/ground_pelvis/pelvis_ty/speed	/jointset/hip_l/hip_flexion_l/speed	/jointset/hip_l/hip_adduction_l/speed	/jointset/hip_l/hip_rotation_l/speed	/jointset/back/lumbar_extension/speed	/jointset/patellofemoral_l/patellar_flexion_l/speed	/jointset/knee_l/knee_flexion_l/speed	/jointset/knee_l/knee_adduction_l/speed	/jointset/knee_l/knee_rotation_l/speed	/jointset/ankle_l/ankle_angle_l/speed	/jointset/subtalar_l/subtalar_angle_l/speed	/forceset/tau_hip_flexion_l	/forceset/tau_hip_adduction_l	/forceset/tau_hip_rotation_l	/forceset/tau_knee_flexion_l	/forceset/tau_ankle_angle_l	/forceset/tau_subtalar_angle_l	/forceset/tau_lumbar_extension	lambda_cid13_p0	lambda_cid13_p1	lambda_cid13_p2	lambda_cid13_p3	lambda_cid13_p4	lambda_cid13_p5	lambda_cid14_p0	/jointset/ground_pelvis/pelvis_tilt/accel	/jointset/ground_pelvis/pelvis_tx/accel	/jointset/ground_pelvis/pelvis_ty/accel	/jointset/hip_l/hip_flexion_l/accel	/jointset/hip_l/hip_adduction_l/accel	/jointset/hip_l/hip_rotation_l/accel	/jointset/back/lumbar_extension/accel	/jointset/patellofemoral_l/patellar_flexion_l/accel	/jointset/knee_l/knee_flexion_l/accel	/jointset/knee_l/knee_adduction_l/accel	/jointset/knee_l/knee_rotation_l/accel	/jointset/ankle_l/ankle_angle_l/accel	/jointset/subtalar_l/subtalar_angle_l/accel	gamma_cid13_p0	gamma_cid13_p1	gamma_cid13_p2	gamma_cid13_p3	gamma_cid13_p4	gamma_cid13_p5	gamma_cid14_p0
1.5	-0.5838076827371834	-0.05696399280684181	0.7725497613974703	1.300783748567279	-0.3492229683489986	-0.09221940287573825	-0.3534495916432698	0.6371190389781476	0.6371190389780109	-0.05408582567965042	-0.1741728732598711	0.02010083343829084	0.0785137627851366	1.122759042870354	0.5203786871655898	0.5526934287750327	-3.048684238856441	-0.01793322319358949	-0.5621100469803275	0.584849993483182	-1.723828942884934	-1.723828942885045	-0.236497666940826	0.009768197187691362	0.07830351294555542	0.01151751936540642	-0.213672533464903	0.009853849211317729	0.006690596596799583	-0.07483297718646507	0.04373692070074946	0.01645387433776876	0.1728483808307213	-9.326352275106927	-7.059260223572259	2.610697521284673	-9.023619897541389	-428.7094546903031	-64.29215698845057	-17.63011770602274	1.012829821134175	0.9952271350557181	-0.6911685239717318	-1.979853769999697	0.329582148611171	-0.2500022511889635	2.026877947026371	-0.7161199134696478	-0.7161199134696852	-0.3344638620457284	0.2582047300317441	0.1963712212595459	0.4004147302359579	7.71653636659014e-09	2.045682900088757e-06	3.180820990320031e-07	4.043825291717296e-07	3.522488662675857e-07	-3.026427068250915e-07	3.210323305017642e-07
1.51	-0.5725301075801316	-0.05171112683039256	0.7780409701296911	1.270200629493595	-0.3493870665967789	-0.09785490482573542	-0.3475019025871453	0.6198470731544383	0.6198470731539565	-0.05646855896812125	-0.1740653676497972	0.02089339256399434	0.07864762020971904	1.132573289352603	0.530110525372651	0.5454226100623172	-3.067503242261435	-0.01488364785447282	-0.5649090185831516	0.6045940110110604	-1.730331384212425	-1.730331384212495	-0.2400433730384061	0.01176240735201827	0.08020267697478516	0.0152550912384696	-0.2065319766478619	0.009757999417770214	0.007212430020394002	-0.07239942568183315	0.03929515969794351	0.01532461495781455	0.1674988483957091	-10.58283887632127	-6.602249025516375	2.827312861973734	-7.912328750369007	-424.1430992310407	-63.69116504892607	-18.28406196947467	0.9383474735614883	0.9496395657782802	-0.7638234066073483	-1.7674381594243	0.2927341617055841	-0.2824174930528281	1.934092643546608	-0.58244120398008	-0.5824412039723975	-0.3634101261789448	0.1743895808523725	0.1859029195599914	0.3602894008246184	5.246645376328357e-09	1.920954813218475e-06	1.925073973707079e-07	3.843803610311044e-07	3.549881366285518e-07	-2.534985002863952e-07	3.091838529408005e-07
1.52	-0.5611598648760556	-0.04636344699142135	0.7834557137024439	1.239442417479037	-0.3495206513041303	-0.1035159110678145	-0.3413595875581855	0.6025170559247416	0.6025170559247629	-0.05888650654401086	-0.1739370478546859	0.02170478611512039	0.0788188255500278	1.141292552307047	0.5393414596699801	0.5374003968814468	-3.083702827013155	-0.01183051510921015	-0.5672109053151063	0.6237751880541873	-1.735439224003645	-1.735439224003675	-0.2435405248387244	0.01393103436515074	0.08207039803617951	0.01898710251081026	-0.1993914198312539	0.009662149622595864	0.00773426345082038	-0.06996587417806827	0.03485339869435075	0.01419535557593948	0.1621493159608702	-11.8424517837628	-6.142819107330523	3.041405349162593	-6.784825250358635	-419.6201327022648	-63.12592983946585	-18.92195993854189	0.7938331155700168	0.8950463531092135	-0.8414474176028837	-1.455970039345217	0.3302936298397969	-0.1505852770152576	1.914309850074084	-0.4371996062148926	-0.4371996062149431	-0.324753002593983	0.2930880997925694	0.1900826276925113	0.3993026100910944	2.59726692908266e-09	1.883606395063394e-06	1.140631810998924e-07	3.761547276168615e-07	3.643798985483919e-07	-2.133680927036398e-07	3.061265388923687e-07
1.53	-0.5497079609562392	-0.04092600154760814	0.7887866071317003	1.208535226851674	-0.3496235431423154	-0.1091977893412992	-0.335028376565722	0.5851428429558935	0.5851428429563412	-0.06133878410893866	-0.1737862910843085	0.0225347738625228	0.07902749760750868	1.14889254323057	0.5480586185889625	0.5286646102802357	-3.097291818694424	-0.008729786415117692	-0.5691064527982851	0.6423691901747031	-1.739176055567809	-1.739176055567837	-0.2468616323224482	0.01624455422209287	0.08392861882999449	0.02276678910565449	-0.1923045746197528	0.009390021455723877	0.008194466486404872	-0.06779341289117202	0.03087155546309206	0.01297285391222434	0.1568273364603518	-12.97419469999814	-5.650310404442314	3.233121353028962	-5.783501485103323	-415.3972838893758	-62.55239955385795	-19.54038657323963	0.7137576983691488	0.8467756343429822	-0.9066181546340916	-1.243807353793019	0.3023325340839904	-0.2000595609904132	1.817272350558844	-0.3078909622316671	-0.307890962230165	-0.3274015799533884	0.2040434457831049	0.1839718134988626	0.3699052551307473	-2.42816941208442e-10	1.939098874918214e-06	8.569510555646101e-08	3.804416623493997e-07	3.808399327495356e-07	-1.828148465115716e-07	3.124098360760021e-07
